<svg xmlns="http://www.w3.org/2000/svg" width="512" height="512" viewBox="0 0 128 128">
  <defs>
    <linearGradient id="bgGroup" x1="0" y1="0" x2="1" y2="1">
      <stop offset="0%"  stop-color="#B68C62"/>
      <stop offset="100%" stop-color="#E9D9C7"/>
    </linearGradient>
  </defs>
  <circle cx="64" cy="64" r="62" fill="url(#bgGroup)"/>
  <circle cx="64" cy="64" r="61" fill="none" stroke="#000" stroke-opacity=".06" stroke-width="2"/>
  <g fill="#fff" opacity="0.96" transform="translate(0,4)">
    <circle cx="64" cy="40" r="13"/>
    <path d="M44 82c1-10 10-18 20-18s19 8 20 18c0 2-2 4-5 4H49c-3 0-5-2-5-4z"/>
    <circle cx="42" cy="48" r="10"/>
    <path d="M26 82c1-9 9-15 16-15 3 0 5 1 7 2-6 2-11 7-12 13-1 1-2 3-4 3h-5c-2 0-3-2-2-3z"/>
    <circle cx="86" cy="48" r="10"/>
    <path d="M102 82c-1-9-9-15-16-15-3 0-5 1-7 2 6 2 11 7 12 13 0 1 2 3 4 3h5c2 0 3-2 2-3z"/>
  </g>
</svg>
